# xmcd CD database file
#
# Track frame offsets:
#	150
#	26810
#	54293
#	73131
#	93233
#	119622
#	129724
#	145490
#	176365
#	190290
#	219753
#	252243
#	271957
#
# Disc length: 3962 seconds
#
# Revision: 0
# Processed by: cddbd v1.5.2PL0 Copyright (c) Steve Scherf et al.
# Submitted via: CDex 1.95
#
DISCID=c20f780d
DTITLE=Various Artist - Let's Do It: 60 Years of Verve Records - Disc 4
DYEAR=2016
DGENRE=Jazz
TTITLE0=Marc Johnson - Summer Running
TTITLE1=Roy Hargrove - You Go To My Head
TTITLE2=John McLaughlin - My Romance
TTITLE3=Billie Holiday  - Speak Low
TTITLE4=Stan Getz - Charlei Byrd - Desafinado
TTITLE5=Blossom Dearie - Rhode Island Is Famous For You
TTITLE6=Gerry Mulligan and Paul Desmond - Standstill
TTITLE7=Lester Young - Love Me or Leave Me
TTITLE8=Arthur Prysock - Autumn in NY
TTITLE9=Bill Evans - Round Midnight
TTITLE10=David Sanborn - Comin' Home Baby
TTITLE11=Melody Gardot - Worrisome Heart
TTITLE12=Oscar Peterson - Hymn To Freedom
EXTD=YEAR: 2016
EXTT0=
EXTT1=
EXTT2=
EXTT3=
EXTT4=
EXTT5=
EXTT6=
EXTT7=
EXTT8=
EXTT9=
EXTT10=
EXTT11=
EXTT12=
PLAYORDER=
